<svg width="35" height="35" viewBox="0 0 35 35" fill="none" xmlns="http://www.w3.org/2000/svg">
<path d="M0 5C0 2.23858 2.23858 0 5 0H35V35H5C2.23858 35 0 32.7614 0 30V5Z" fill="#727CF4"/>
<path fill-rule="evenodd" clip-rule="evenodd" d="M26.25 17.5C26.25 17.3453 26.1874 17.197 26.0761 17.0876C25.9648 16.9782 25.8137 16.9167 25.6563 16.9167H11.653L15.3898 13.2469C15.445 13.1927 15.4888 13.1283 15.5187 13.0575C15.5486 12.9866 15.5639 12.9107 15.5639 12.834C15.5639 12.7573 15.5486 12.6814 15.5187 12.6105C15.4888 12.5397 15.445 12.4753 15.3898 12.421C15.3346 12.3668 15.2691 12.3238 15.197 12.2945C15.1248 12.2651 15.0475 12.25 14.9695 12.25C14.8914 12.25 14.8141 12.2651 14.742 12.2945C14.6699 12.3238 14.6043 12.3668 14.5491 12.421L9.79943 17.0871C9.74413 17.1412 9.70027 17.2056 9.67034 17.2765C9.64041 17.3473 9.625 17.4233 9.625 17.5C9.625 17.5767 9.64041 17.6527 9.67034 17.7235C9.70027 17.7944 9.74413 17.8588 9.79943 17.9129L14.5491 22.579C14.6043 22.6332 14.6699 22.6762 14.742 22.7055C14.8141 22.7349 14.8914 22.75 14.9695 22.75C15.0475 22.75 15.1248 22.7349 15.197 22.7055C15.2691 22.6762 15.3346 22.6332 15.3898 22.579C15.445 22.5247 15.4888 22.4603 15.5187 22.3895C15.5486 22.3186 15.5639 22.2427 15.5639 22.166C15.5639 22.0893 15.5486 22.0134 15.5187 21.9425C15.4888 21.8717 15.445 21.8073 15.3898 21.7531L11.653 18.0833H25.6563C25.8137 18.0833 25.9648 18.0218 26.0761 17.9124C26.1874 17.803 26.25 17.6547 26.25 17.5Z" fill="white"/>
</svg>
