<svg width="35" height="35" viewBox="0 0 35 35" fill="none" xmlns="http://www.w3.org/2000/svg">
<path d="M0 0H30C32.7614 0 35 2.23858 35 5V30C35 32.7614 32.7614 35 30 35H0V0Z" fill="#727CF4"/>
<path fill-rule="evenodd" clip-rule="evenodd" d="M9.625 17.5C9.625 17.6547 9.68755 17.803 9.79889 17.9124C9.91024 18.0218 10.0613 18.0833 10.2187 18.0833H24.222L20.4852 21.7531C20.43 21.8073 20.3862 21.8717 20.3563 21.9425C20.3264 22.0134 20.3111 22.0893 20.3111 22.166C20.3111 22.2427 20.3264 22.3186 20.3563 22.3895C20.3862 22.4603 20.43 22.5247 20.4852 22.579C20.5404 22.6332 20.6059 22.6762 20.678 22.7055C20.7502 22.7349 20.8275 22.75 20.9055 22.75C20.9836 22.75 21.0609 22.7349 21.133 22.7055C21.2051 22.6762 21.2707 22.6332 21.3259 22.579L26.0756 17.9129C26.1309 17.8588 26.1747 17.7944 26.2047 17.7235C26.2346 17.6527 26.25 17.5767 26.25 17.5C26.25 17.4233 26.2346 17.3473 26.2047 17.2765C26.1747 17.2056 26.1309 17.1412 26.0756 17.0871L21.3259 12.421C21.2707 12.3668 21.2051 12.3238 21.133 12.2945C21.0609 12.2651 20.9836 12.25 20.9055 12.25C20.8275 12.25 20.7502 12.2651 20.678 12.2945C20.6059 12.3238 20.5404 12.3668 20.4852 12.421C20.43 12.4753 20.3862 12.5397 20.3563 12.6105C20.3264 12.6814 20.3111 12.7573 20.3111 12.834C20.3111 12.9107 20.3264 12.9866 20.3563 13.0575C20.3862 13.1283 20.43 13.1927 20.4852 13.2469L24.222 16.9167H10.2187C10.0613 16.9167 9.91024 16.9782 9.79889 17.0876C9.68755 17.197 9.625 17.3453 9.625 17.5Z" fill="white"/>
</svg>
